# xmcd
#
# Track frame offsets:
#	150
#	5010
#	32237
#	37457
#	62468
#	66921
#	90854
#	93958
#	127182
#	131980
#	160554
#	167768
#	204894
#	210343
#	254278
#	260891
#
# Disc length: 3872 seconds
#
# Revision: 0
# Processed by: cddbd v1.4PL0 Copyright (c) Steve Scherf et al.
# Submitted via: audiograbber 1.81.03
#
DISCID=e10f1e10
DTITLE=Michael Messer - Play The Blues CD1
DYEAR=2003
DGENRE=Blues
TTITLE0=Maxwell Street Shuffle (instrumental)
TTITLE1=Maxwell Street Shuffle (backing)
TTITLE2=Uptown Blues (instrumental)
TTITLE3=Uptown Blues (backing)
TTITLE4=Swing Them Blues (instrumental)
TTITLE5=Swing Them Blues (backing)
TTITLE6=Riki-Tik Shuffle (instrumental)
TTITLE7=Riki-Tik Shuffle (backing)
TTITLE8=The Groove (instrumental)
TTITLE9=The Groove (backing)
TTITLE10=Blue Letter Blues (instrumental)
TTITLE11=Blue Letter Blues (backing)
TTITLE12=Woke Up This Morning (instrumental)
TTITLE13=Woke Up This Morning (backing)
TTITLE14='lectricity Blues (instrumental)
TTITLE15='lectricity Blues (backing)
EXTD=Authentic blues backing tracks for guitarists
EXTT0=
EXTT1=
EXTT2=
EXTT3=
EXTT4=
EXTT5=
EXTT6=
EXTT7=
EXTT8=
EXTT9=
EXTT10=
EXTT11=
EXTT12=
EXTT13=
EXTT14=
EXTT15=
PLAYORDER=
